<mxfile host="app.diagrams.net" agent="Mozilla/5.0 (Windows NT 10.0; Win64; x64) AppleWebKit/537.36 (KHTML, like Gecko) Chrome/138.0.0.0 Safari/537.36" version="28.0.9">
  <diagram name="Page-1" id="H8DpeEtLhy9f013uELl-">
    <mxGraphModel dx="1226" dy="715" grid="1" gridSize="10" guides="1" tooltips="1" connect="1" arrows="1" fold="1" page="1" pageScale="1" pageWidth="850" pageHeight="1100" math="0" shadow="0">
      <root>
        <mxCell id="0" />
        <mxCell id="1" parent="0" />
        <mxCell id="AWOsMiHmGsWHdNTZipyf-16" value="`" style="edgeStyle=orthogonalEdgeStyle;rounded=0;orthogonalLoop=1;jettySize=auto;html=1;exitX=0.5;exitY=1;exitDx=0;exitDy=0;entryX=0.5;entryY=0;entryDx=0;entryDy=0;labelBackgroundColor=none;fontColor=default;strokeColor=#457B9D;sketch=1;curveFitting=1;jiggle=2;" edge="1" parent="1" source="AWOsMiHmGsWHdNTZipyf-1" target="AWOsMiHmGsWHdNTZipyf-2">
          <mxGeometry relative="1" as="geometry" />
        </mxCell>
        <mxCell id="AWOsMiHmGsWHdNTZipyf-1" value="START" style="ellipse;whiteSpace=wrap;html=1;labelBackgroundColor=none;fillColor=#A8DADC;strokeColor=#457B9D;fontColor=#1D3557;sketch=1;curveFitting=1;jiggle=2;rounded=0;" vertex="1" parent="1">
          <mxGeometry x="110" y="90" width="170" height="80" as="geometry" />
        </mxCell>
        <mxCell id="AWOsMiHmGsWHdNTZipyf-10" style="edgeStyle=orthogonalEdgeStyle;rounded=0;orthogonalLoop=1;jettySize=auto;html=1;exitX=1;exitY=0.5;exitDx=0;exitDy=0;entryX=0;entryY=0.5;entryDx=0;entryDy=0;labelBackgroundColor=none;fontColor=default;strokeColor=#457B9D;sketch=1;curveFitting=1;jiggle=2;" edge="1" parent="1" source="AWOsMiHmGsWHdNTZipyf-2" target="AWOsMiHmGsWHdNTZipyf-8">
          <mxGeometry relative="1" as="geometry" />
        </mxCell>
        <mxCell id="AWOsMiHmGsWHdNTZipyf-2" value="NEW USER?" style="rhombus;whiteSpace=wrap;html=1;labelBackgroundColor=none;fillColor=#A8DADC;strokeColor=#457B9D;fontColor=#1D3557;sketch=1;curveFitting=1;jiggle=2;rounded=0;" vertex="1" parent="1">
          <mxGeometry x="122.5" y="220" width="145" height="80" as="geometry" />
        </mxCell>
        <mxCell id="AWOsMiHmGsWHdNTZipyf-12" style="edgeStyle=orthogonalEdgeStyle;rounded=0;orthogonalLoop=1;jettySize=auto;html=1;exitX=0.5;exitY=1;exitDx=0;exitDy=0;entryX=0.5;entryY=0;entryDx=0;entryDy=0;labelBackgroundColor=none;fontColor=default;strokeColor=#457B9D;sketch=1;curveFitting=1;jiggle=2;" edge="1" parent="1" source="AWOsMiHmGsWHdNTZipyf-4" target="AWOsMiHmGsWHdNTZipyf-5">
          <mxGeometry relative="1" as="geometry" />
        </mxCell>
        <mxCell id="AWOsMiHmGsWHdNTZipyf-4" value="RECONGNIZE&lt;div&gt;THE FACE&lt;/div&gt;" style="shape=parallelogram;perimeter=parallelogramPerimeter;whiteSpace=wrap;html=1;fixedSize=1;labelBackgroundColor=none;fillColor=#A8DADC;strokeColor=#457B9D;fontColor=#1D3557;sketch=1;curveFitting=1;jiggle=2;rounded=0;" vertex="1" parent="1">
          <mxGeometry x="125" y="350" width="155" height="60" as="geometry" />
        </mxCell>
        <mxCell id="AWOsMiHmGsWHdNTZipyf-17" style="edgeStyle=orthogonalEdgeStyle;rounded=0;orthogonalLoop=1;jettySize=auto;html=1;exitX=1;exitY=0.5;exitDx=0;exitDy=0;entryX=0.399;entryY=-0.067;entryDx=0;entryDy=0;entryPerimeter=0;labelBackgroundColor=none;fontColor=default;strokeColor=#457B9D;sketch=1;curveFitting=1;jiggle=2;" edge="1" parent="1" source="AWOsMiHmGsWHdNTZipyf-5" target="AWOsMiHmGsWHdNTZipyf-8">
          <mxGeometry relative="1" as="geometry">
            <mxPoint x="791.7778862847222" y="160" as="targetPoint" />
            <Array as="points">
              <mxPoint x="780" y="510" />
              <mxPoint x="780" y="140" />
              <mxPoint x="580" y="140" />
            </Array>
          </mxGeometry>
        </mxCell>
        <mxCell id="AWOsMiHmGsWHdNTZipyf-5" value="FACE&amp;nbsp;&lt;div&gt;RECONGNIZED&lt;/div&gt;" style="rhombus;whiteSpace=wrap;html=1;labelBackgroundColor=none;fillColor=#A8DADC;strokeColor=#457B9D;fontColor=#1D3557;sketch=1;curveFitting=1;jiggle=2;rounded=0;" vertex="1" parent="1">
          <mxGeometry x="128.75" y="460" width="147.5" height="100" as="geometry" />
        </mxCell>
        <mxCell id="AWOsMiHmGsWHdNTZipyf-6" value="&lt;font style=&quot;font-size: 8px;&quot;&gt;STORRED IN CSV FILE WITH &lt;font style=&quot;&quot;&gt;REGESTRATION&lt;/font&gt;&lt;/font&gt;&lt;div&gt;&lt;font style=&quot;font-size: 8px;&quot;&gt;NUMBER &amp;amp; DATE , TIME OF ENTRY&lt;/font&gt;&lt;/div&gt;" style="shape=parallelogram;perimeter=parallelogramPerimeter;whiteSpace=wrap;html=1;fixedSize=1;labelBackgroundColor=none;fillColor=#A8DADC;strokeColor=#457B9D;fontColor=#1D3557;sketch=1;curveFitting=1;jiggle=2;rounded=0;" vertex="1" parent="1">
          <mxGeometry x="110" y="630" width="170" height="70" as="geometry" />
        </mxCell>
        <mxCell id="AWOsMiHmGsWHdNTZipyf-7" value="END" style="ellipse;whiteSpace=wrap;html=1;labelBackgroundColor=none;fillColor=#A8DADC;strokeColor=#457B9D;fontColor=#1D3557;sketch=1;curveFitting=1;jiggle=2;rounded=0;" vertex="1" parent="1">
          <mxGeometry x="134.38" y="760" width="143.75" height="90" as="geometry" />
        </mxCell>
        <mxCell id="AWOsMiHmGsWHdNTZipyf-18" style="edgeStyle=orthogonalEdgeStyle;rounded=0;orthogonalLoop=1;jettySize=auto;html=1;exitX=0.5;exitY=1;exitDx=0;exitDy=0;entryX=0.5;entryY=0;entryDx=0;entryDy=0;labelBackgroundColor=none;fontColor=default;strokeColor=#457B9D;sketch=1;curveFitting=1;jiggle=2;" edge="1" parent="1" source="AWOsMiHmGsWHdNTZipyf-8" target="AWOsMiHmGsWHdNTZipyf-9">
          <mxGeometry relative="1" as="geometry" />
        </mxCell>
        <mxCell id="AWOsMiHmGsWHdNTZipyf-8" value="GIVE YOUR&amp;nbsp;&lt;div&gt;PHOTOGRAPH&lt;/div&gt;" style="rounded=0;whiteSpace=wrap;html=1;labelBackgroundColor=none;fillColor=#A8DADC;strokeColor=#457B9D;fontColor=#1D3557;sketch=1;curveFitting=1;jiggle=2;" vertex="1" parent="1">
          <mxGeometry x="500" y="230" width="200" height="60" as="geometry" />
        </mxCell>
        <mxCell id="AWOsMiHmGsWHdNTZipyf-11" style="edgeStyle=orthogonalEdgeStyle;rounded=0;orthogonalLoop=1;jettySize=auto;html=1;exitX=0;exitY=0.5;exitDx=0;exitDy=0;labelBackgroundColor=none;fontColor=default;strokeColor=#457B9D;sketch=1;curveFitting=1;jiggle=2;" edge="1" parent="1" source="AWOsMiHmGsWHdNTZipyf-9" target="AWOsMiHmGsWHdNTZipyf-4">
          <mxGeometry relative="1" as="geometry" />
        </mxCell>
        <mxCell id="AWOsMiHmGsWHdNTZipyf-9" value="STORE THE FAC&lt;span style=&quot;background-color: transparent; color: light-dark(rgb(0, 0, 0), rgb(255, 255, 255));&quot;&gt;E&lt;/span&gt;&lt;div&gt;&lt;span style=&quot;background-color: transparent; color: light-dark(rgb(0, 0, 0), rgb(255, 255, 255));&quot;&gt;&amp;nbsp;DATA IN&lt;/span&gt;&lt;div&gt;&lt;div&gt;FOLDER ON YOUR NAME&amp;nbsp;&lt;/div&gt;&lt;/div&gt;&lt;/div&gt;" style="rounded=0;whiteSpace=wrap;html=1;labelBackgroundColor=none;fillColor=#A8DADC;strokeColor=#457B9D;fontColor=#1D3557;sketch=1;curveFitting=1;jiggle=2;" vertex="1" parent="1">
          <mxGeometry x="500" y="350" width="200" height="60" as="geometry" />
        </mxCell>
        <mxCell id="AWOsMiHmGsWHdNTZipyf-14" style="edgeStyle=orthogonalEdgeStyle;rounded=0;orthogonalLoop=1;jettySize=auto;html=1;exitX=0.5;exitY=1;exitDx=0;exitDy=0;labelBackgroundColor=none;fontColor=default;strokeColor=#457B9D;sketch=1;curveFitting=1;jiggle=2;" edge="1" parent="1" source="AWOsMiHmGsWHdNTZipyf-5">
          <mxGeometry relative="1" as="geometry">
            <mxPoint x="202" y="630" as="targetPoint" />
          </mxGeometry>
        </mxCell>
        <mxCell id="AWOsMiHmGsWHdNTZipyf-19" value="yes" style="text;html=1;align=center;verticalAlign=middle;resizable=0;points=[];autosize=1;labelBackgroundColor=none;fontColor=#1D3557;sketch=1;curveFitting=1;jiggle=2;rounded=0;" vertex="1" parent="1">
          <mxGeometry x="360" y="238" width="40" height="30" as="geometry" />
        </mxCell>
        <mxCell id="AWOsMiHmGsWHdNTZipyf-20" value="no" style="text;html=1;align=center;verticalAlign=middle;resizable=0;points=[];autosize=1;labelBackgroundColor=none;fontColor=#1D3557;sketch=1;curveFitting=1;jiggle=2;rounded=0;" vertex="1" parent="1">
          <mxGeometry x="380" y="488" width="40" height="30" as="geometry" />
        </mxCell>
        <mxCell id="AWOsMiHmGsWHdNTZipyf-21" style="edgeStyle=orthogonalEdgeStyle;rounded=0;orthogonalLoop=1;jettySize=auto;html=1;exitX=0.5;exitY=1;exitDx=0;exitDy=0;entryX=0.422;entryY=0.021;entryDx=0;entryDy=0;entryPerimeter=0;labelBackgroundColor=none;fontColor=default;strokeColor=#457B9D;sketch=1;curveFitting=1;jiggle=2;" edge="1" parent="1" source="AWOsMiHmGsWHdNTZipyf-6" target="AWOsMiHmGsWHdNTZipyf-7">
          <mxGeometry relative="1" as="geometry" />
        </mxCell>
        <mxCell id="AWOsMiHmGsWHdNTZipyf-22" style="edgeStyle=orthogonalEdgeStyle;rounded=0;orthogonalLoop=1;jettySize=auto;html=1;exitX=0.5;exitY=1;exitDx=0;exitDy=0;entryX=0.453;entryY=0.167;entryDx=0;entryDy=0;entryPerimeter=0;labelBackgroundColor=none;fontColor=default;strokeColor=#457B9D;sketch=1;curveFitting=1;jiggle=2;" edge="1" parent="1" source="AWOsMiHmGsWHdNTZipyf-2" target="AWOsMiHmGsWHdNTZipyf-4">
          <mxGeometry relative="1" as="geometry" />
        </mxCell>
        <mxCell id="AWOsMiHmGsWHdNTZipyf-23" value="NO" style="text;html=1;align=center;verticalAlign=middle;resizable=0;points=[];autosize=1;labelBackgroundColor=none;fontColor=#1D3557;sketch=1;curveFitting=1;jiggle=2;rounded=0;" vertex="1" parent="1">
          <mxGeometry x="150" y="298" width="40" height="30" as="geometry" />
        </mxCell>
      </root>
    </mxGraphModel>
  </diagram>
</mxfile>
